# xmcd CD database file
#
# Track frame offsets:
#	150
#	14783
#	25947
#	49908
#	64113
#	78893
#	95657
#	107925
#	128754
#	135258
#	149749
#	176284
#
# Disc length: 3779 seconds
#
# Revision: 0
# Processed by: cddbd v1.5.1PL2 Copyright (c) Steve Scherf et al.
# Submitted via: CDex 1.60beta1
#
DISCID=a60ec10c
DTITLE=Katja Meyer and Richard Schütz - Live at #Tausend
DYEAR=2004
DGENRE=Jazz
TTITLE0=Fly me to the Moon
TTITLE1=What a difference a day makes
TTITLE2=Angel Eyes
TTITLE3=I can see clearly now
TTITLE4='Ne Dame werd ich nie
TTITLE5=Night and Day
TTITLE6=The two of us
TTITLE7=Masquerade
TTITLE8=Santa Claus is coming to town
TTITLE9=Sunny
TTITLE10=Fever
TTITLE11=Data Track
EXTD=YEAR: 2004
EXTT0=
EXTT1=
EXTT2=
EXTT3=
EXTT4=
EXTT5=
EXTT6=
EXTT7=
EXTT8=
EXTT9=
EXTT10=
EXTT11=
PLAYORDER=
